<?xml version="1.0" standalone="no"?><!DOCTYPE svg PUBLIC "-//W3C//DTD SVG 1.1//EN" "http://www.w3.org/Graphics/SVG/1.1/DTD/svg11.dtd"><svg t="1545792547692" class="icon" style="" viewBox="0 0 1265 1024" version="1.1" xmlns="http://www.w3.org/2000/svg" p-id="1917" xmlns:xlink="http://www.w3.org/1999/xlink" width="247.0703125" height="200"><defs><style type="text/css"></style></defs><path d="M964.923 21.268A21.268 21.268 0 0 0 945.231 0H315.077a21.268 21.268 0 0 0-20.48 21.268L0 472.615v530.905A20.48 20.48 0 0 0 20.48 1024h1219.348a20.48 20.48 0 0 0 20.48-20.48V463.163z m-611.25 57.501h551.385l266.24 393.846H852.283a236.308 236.308 0 0 1-444.258 0H92.948z m827.865 866.462H78.77V551.385h281.206a315.077 315.077 0 0 0 541.145 0h280.418z" p-id="1918"></path></svg>